<?xml version="1.0" ?><svg height="36" id="svg4488" version="1.1" width="36" xmlns="http://www.w3.org/2000/svg" xmlns:cc="http://creativecommons.org/ns#" xmlns:dc="http://purl.org/dc/elements/1.1/" xmlns:inkscape="http://www.inkscape.org/namespaces/inkscape" xmlns:rdf="http://www.w3.org/1999/02/22-rdf-syntax-ns#" xmlns:sodipodi="http://sodipodi.sourceforge.net/DTD/sodipodi-0.dtd" xmlns:svg="http://www.w3.org/2000/svg"><defs id="defs4490"/><g id="layer1" transform="translate(0,-1016.3622)"><path d="m 9,1019.3672 0,1 1.33204,0 0,28 -1.33204,0 0,1 3,0 0,-30 -3,0 z m 4,0 0,30 1.04297,0 c 0.015,-0.074 0.0328,-0.1481 0.0547,-0.2207 l 0,0 0,0 c 0.0237,-0.077 0.0521,-0.1524 0.084,-0.2285 l 0,0 0.002,0 c 0.032,-0.075 0.0666,-0.1482 0.10547,-0.2188 0.039,-0.072 0.0812,-0.1399 0.12695,-0.207 l 0.002,0 0,0 c 0.0448,-0.065 0.0937,-0.1285 0.14649,-0.1914 0.0543,-0.065 0.10961,-0.1246 0.16601,-0.1797 l 0.002,0 c 0.0578,-0.056 0.11894,-0.1098 0.18164,-0.1601 0.0682,-0.054 0.13637,-0.1011 0.20117,-0.1426 0.0658,-0.042 0.13618,-0.085 0.20898,-0.1231 0.0769,-0.04 0.15301,-0.071 0.22461,-0.1 l 0.004,0 0.002,0 c 0.0736,-0.028 0.14891,-0.052 0.22461,-0.072 0.002,-10e-4 0.004,-10e-4 0.006,0 l 0.002,0 c 0.0798,-0.023 0.15953,-0.039 0.23633,-0.053 0.0794,-0.014 0.1608,-0.024 0.2461,-0.029 l 0.0156,0 0.1543,0 c 0.0652,0 0.15676,0 0.27148,0.016 0.0394,0.01 0.11019,0.011 0.20899,0.029 l 0.002,0 0.004,0 c 0.0793,0.016 0.15999,0.036 0.24219,0.062 0.0758,0.023 0.14926,0.051 0.22266,0.082 l 0.004,0 0.004,0 c 0.069,0.03 0.14114,0.064 0.21484,0.1055 l 0.006,0 c 0.0696,0.038 0.13648,0.079 0.20118,0.1231 l 0.002,0 c 0.0712,0.048 0.13556,0.099 0.19336,0.1464 l 0,0 0.002,0 c 0.061,0.052 0.12129,0.1075 0.17969,0.168 0.0564,0.058 0.11056,0.1199 0.16016,0.1817 l 0.002,0 0.002,0 c 0.0477,0.061 0.0946,0.126 0.13867,0.1953 l 0.006,0 c 0.0438,0.067 0.0832,0.1356 0.11914,0.205 l 0.002,0 0,0 c 0.0367,0.072 0.0696,0.1462 0.0996,0.2227 l 0.002,0 0,0 c 0.0283,0.074 0.053,0.1497 0.0742,0.2266 l 0.002,0.01 c 0.0141,0.05 0.0226,0.1019 0.0332,0.1523 l 6.16602,0 c 0.56267,0 1,-0.4373 1,-1 l 0,-4.5039 -3.00391,0 0,-1 3.00391,0 0,-1 -3.00391,0 0,-1 3.00391,0 0,-1 -3.00391,0 0,-1 3.00391,0 0,-1 -3.00391,0 0,-1 3.00391,0 0,-1 -3.00391,0 0,-1 3.00391,0 0,-1 -3.00391,0 0,-1 3.00391,0 0,-1 -3.00391,0 0,-1 3.00391,0 0,-1 -3.00391,0 0,-1 3.00391,0 0,-1 -3.00391,0 0,-1 3.00391,0 0,-1 -3.00391,0 0,-1 3.00391,0 0,-4.4961 c 0,-0.5627 -0.43733,-1 -1,-1 l -6.16406,0 c -0.015,0.074 -0.0328,0.1481 -0.0547,0.2207 l 0,0 c -0.0237,0.077 -0.0521,0.1544 -0.084,0.2305 l 0,0 -0.002,0 c -0.032,0.075 -0.0667,0.1462 -0.10547,0.2168 l -0.006,0 c -0.0387,0.071 -0.0798,0.1406 -0.125,0.207 l -0.002,0 c -0.0445,0.065 -0.0941,0.1289 -0.14648,0.1914 l 0,0 c -0.054,0.064 -0.10982,0.1229 -0.16602,0.1777 l -0.002,0 c -0.0578,0.056 -0.11894,0.1099 -0.18164,0.1602 l -0.002,0 -0.004,0 c -0.0619,0.048 -0.12691,0.095 -0.19531,0.1387 l -0.002,0 c -0.0651,0.042 -0.13503,0.082 -0.20703,0.1191 -0.0769,0.04 -0.15301,0.073 -0.22461,0.1016 l -0.004,0 -0.002,0 c -0.0762,0.029 -0.15412,0.055 -0.23242,0.076 -0.0797,0.023 -0.15757,0.039 -0.23437,0.053 l -0.002,0 c -0.0794,0.014 -0.16079,0.024 -0.24609,0.029 l -0.0156,0 -0.15429,0 c -0.0652,0 -0.15677,0 -0.27149,-0.016 -0.0427,-0.01 -0.11393,-0.013 -0.20703,-0.031 -0.0843,-0.016 -0.16654,-0.037 -0.24414,-0.061 -0.0779,-0.024 -0.15322,-0.051 -0.22852,-0.082 l -0.004,0 -0.004,0 c -0.0691,-0.03 -0.14114,-0.065 -0.21484,-0.1055 -0.0716,-0.039 -0.14103,-0.082 -0.20703,-0.1269 -0.0718,-0.048 -0.13691,-0.1 -0.19532,-0.1485 l -0.002,0 0,0 c -0.061,-0.051 -0.12159,-0.1059 -0.17969,-0.166 -0.0564,-0.058 -0.11035,-0.1195 -0.16015,-0.1816 l -0.002,0 -0.002,0 c -0.0471,-0.061 -0.093,-0.125 -0.13672,-0.1934 l -0.002,0 c -10e-4,0 -10e-4,0 -0.002,0 -0.0438,-0.067 -0.0833,-0.1379 -0.11914,-0.207 l -0.002,0 0,0 c -0.0367,-0.072 -0.0696,-0.1459 -0.0996,-0.2227 l -0.002,0 0,0 c -0.0285,-0.075 -0.0529,-0.1509 -0.0742,-0.2285 -0.0148,-0.052 -0.0242,-0.1041 -0.0352,-0.1563 l -1.04493,0 z m 11,1 c 0.55228,0 1,0.4477 1,1 0,0.5523 -0.44772,1 -1,1 -0.55228,0 -1,-0.4477 -1,-1 0,-0.5523 0.44772,-1 1,-1 z m -9,3 1,0 0,1 1,0 0,-1 1,0 0,1 1,0 0,-1 1,0 0,1 1,0 0,3 -1,0 0,1 -1,0 0,-1 -1,0 0,1 -1,0 0,-1 -1,0 0,1 -1,0 0,-1 -1,0 0,-2.5 0,-0.5 1,0 0,-1 z m 0,2 0,1 5,0 0,-1 -4,0 -1,0 z m 0,6.5 1,0 0,1 1,0 0,-1 1,0 0,1 1,0 0,-1 1,0 0,1 1,0 0,3 -1,0 0,1 -1,0 0,-1 -1,0 0,1 -1,0 0,-1 -1,0 0,1 -1,0 0,-1 -1,0 0,-2.5 0,-0.5 1,0 0,-1 z m 0,2 0,1 5,0 0,-1 -4,0 -1,0 z m 0,6.5 1,0 0,1 1,0 0,-1 1,0 0,1 1,0 0,-1 1,0 0,1 1,0 0,3 -1,0 0,1 -1,0 0,-1 -1,0 0,1 -1,0 0,-1 -1,0 0,1 -1,0 0,-1 -1,0 0,-2.5 0,-0.5 1,0 0,-1 z m 0,2 0,1 5,0 0,-1 -4,0 -1,0 z m 9,4 c 0.55228,0 1,0.4477 1,1 0,0.5523 -0.44772,1 -1,1 -0.55228,0 -1,-0.4477 -1,-1 0,-0.5523 0.44772,-1 1,-1 z" id="path7305" style="font-size:medium;font-style:normal;font-variant:normal;font-weight:normal;font-stretch:normal;text-indent:0;text-align:start;text-decoration:none;line-height:normal;letter-spacing:normal;word-spacing:normal;text-transform:none;direction:ltr;block-progression:tb;writing-mode:lr-tb;text-anchor:start;baseline-shift:baseline;color:#000000;fill:#000000;fill-opacity:1;fill-rule:nonzero;stroke:none;visibility:visible;display:inline;overflow:visible;enable-background:accumulate;font-family:sans-serif"/></g></svg>