<?xml version="1.0" ?><!DOCTYPE svg  PUBLIC '-//W3C//DTD SVG 1.1//EN'  'http://www.w3.org/Graphics/SVG/1.1/DTD/svg11.dtd'><svg xmlns="http://www.w3.org/2000/svg" xmlns:xlink="http://www.w3.org/1999/xlink" xmlns:serif="http://www.serif.com/" width="100%" height="100%" viewBox="0 0 64 64" version="1.1" xml:space="preserve" style="fill-rule:evenodd;clip-rule:evenodd;stroke-linejoin:round;stroke-miterlimit:2;"><g><path d="M7,10L4,10C2.896,10 2,10.896 2,12C2,13.104 2.896,14 4,14L7,14L7,20L4,20C2.896,20 2,20.896 2,22C2,23.104 2.896,24 4,24L7,24L7,30L4,30C2.896,30 2,30.896 2,32C2,33.104 2.896,34 4,34L7,34L7,40L4,40C2.896,40 2,40.896 2,42C2,43.104 2.896,44 4,44L7,44L7,50L4,50C2.896,50 2,50.896 2,52C2,53.104 2.896,54 4,54L7,54L7,61C7,62.105 7.895,63 9,63L60,63C61.105,63 62,62.105 62,61L62,3C62,1.895 61.105,1 60,1L9,1C7.895,1 7,1.895 7,3L7,10ZM11,54L11,59L58,59L58,5L11,5L11,10L14,10C15.104,10 16,10.896 16,12C16,13.104 15.104,14 14,14L11,14L11,20L14,20C15.104,20 16,20.896 16,22C16,23.104 15.104,24 14,24L11,24L11,30L14,30C15.104,30 16,30.896 16,32C16,33.104 15.104,34 14,34L11,34L11,40L14,40C15.104,40 16,40.896 16,42C16,43.104 15.104,44 14,44L11,44L11,50L14,50C15.104,50 16,50.896 16,52C16,53.104 15.104,54 14,54L11,54Z"/><g transform="matrix(0.8125,0,0,1.05882,7.75,1.41176)"><path d="M54.462,10C54.462,8.957 53.359,8.111 52,8.111L20,8.111C18.641,8.111 17.538,8.957 17.538,10L17.538,27C17.538,28.043 18.641,28.889 20,28.889L52,28.889C53.359,28.889 54.462,28.043 54.462,27L54.462,10ZM49.538,11.889L49.538,25.111C49.538,25.111 22.462,25.111 22.462,25.111C22.462,25.111 22.462,11.889 22.462,11.889L49.538,11.889Z"/></g><path d="M30,20L44,20C45.104,20 46,19.104 46,18C46,16.896 45.104,16 44,16L30,16C28.896,16 28,16.896 28,18C28,19.104 28.896,20 30,20Z"/><path d="M30,26L44,26C45.104,26 46,25.104 46,24C46,22.896 45.104,22 44,22L30,22C28.896,22 28,22.896 28,24C28,25.104 28.896,26 30,26Z"/></g></svg>