<?xml version="1.0" ?><svg xmlns="http://www.w3.org/2000/svg" xmlns:xlink="http://www.w3.org/1999/xlink" version="1.0" viewBox="0 0 48 48" enable-background="new 0 0 48 48" xml:space="preserve"><g id="Layer_1"/><g id="_x31_6_x5F_Clock"><path d="M45,24c0,11.579-9.421,21-21,21c-5.688,0-11.015-2.237-14.997-6.3c-0.386-0.395-0.38-1.027,0.014-1.414   c0.395-0.389,1.026-0.38,1.415,0.014C14.035,40.976,18.853,43,24,43c10.477,0,19-8.523,19-19S34.477,5,24,5c-0.552,0-1-0.448-1-1   s0.448-1,1-1C35.58,3,45,12.42,45,24z M5,24c0-9.001,6.392-16.832,15.199-18.62c0.541-0.11,0.891-0.638,0.781-1.179   c-0.11-0.541-0.637-0.893-1.179-0.781C10.066,5.396,3,14.052,3,24c0,3.924,1.089,7.751,3.15,11.067   C6.339,35.373,6.666,35.54,7,35.54c0.18,0,0.362-0.049,0.527-0.15c0.469-0.292,0.613-0.908,0.322-1.377C5.985,31.013,5,27.55,5,24z    M15.515,14.101l-2.121-2.121c-0.391-0.391-1.023-0.391-1.414,0s-0.391,1.023,0,1.414l2.121,2.121   c0.195,0.195,0.451,0.293,0.707,0.293s0.512-0.098,0.707-0.293C15.905,15.124,15.905,14.491,15.515,14.101z M12,24   c0-0.552-0.448-1-1-1H8c-0.552,0-1,0.448-1,1s0.448,1,1,1h3C11.552,25,12,24.552,12,24z M14.101,32.485l-2.121,2.121   c-0.391,0.391-0.391,1.023,0,1.414c0.195,0.195,0.451,0.293,0.707,0.293s0.512-0.098,0.707-0.293l2.121-2.121   c0.391-0.391,0.391-1.023,0-1.414S14.491,32.095,14.101,32.485z M23,37v3c0,0.553,0.448,1,1,1s1-0.447,1-1v-3c0-0.553-0.448-1-1-1   S23,36.447,23,37z M36,24c0,0.552,0.447,1,1,1h3c0.553,0,1-0.448,1-1s-0.447-1-1-1h-3C36.447,23,36,23.448,36,24z M34.606,11.979   l-2.121,2.121c-0.391,0.391-0.391,1.023,0,1.414c0.195,0.195,0.451,0.293,0.707,0.293s0.512-0.098,0.707-0.293l2.121-2.121   c0.391-0.391,0.391-1.023,0-1.414S34.997,11.589,34.606,11.979z M17.336,10.524c0.16,0.385,0.532,0.618,0.924,0.618   c0.127,0,0.257-0.025,0.382-0.077c0.51-0.211,0.752-0.796,0.541-1.307l-0.383-0.924c-0.212-0.511-0.797-0.753-1.307-0.541   c-0.51,0.211-0.752,0.796-0.541,1.307L17.336,10.524z M9.601,16.953c-0.51-0.212-1.096,0.031-1.307,0.541   c-0.211,0.51,0.031,1.095,0.541,1.307l0.924,0.383c0.125,0.052,0.255,0.077,0.382,0.077c0.393,0,0.765-0.232,0.924-0.618   c0.211-0.51-0.031-1.095-0.541-1.307L9.601,16.953z M9.601,31.047l0.924-0.383c0.51-0.211,0.752-0.797,0.541-1.307   s-0.798-0.754-1.307-0.541l-0.924,0.383c-0.51,0.211-0.752,0.797-0.541,1.307c0.16,0.385,0.532,0.617,0.924,0.617   C9.346,31.123,9.476,31.099,9.601,31.047z M17.494,39.706c0.125,0.052,0.255,0.076,0.382,0.076c0.393,0,0.765-0.232,0.924-0.617   l0.383-0.924c0.211-0.51-0.031-1.096-0.541-1.307c-0.511-0.212-1.096,0.031-1.307,0.541l-0.383,0.924   C16.742,38.909,16.984,39.495,17.494,39.706z M28.816,38.241l0.383,0.924c0.159,0.385,0.532,0.617,0.924,0.617   c0.128,0,0.258-0.024,0.383-0.076c0.51-0.211,0.752-0.797,0.541-1.307l-0.383-0.924c-0.211-0.51-0.8-0.75-1.307-0.541   C28.848,37.146,28.605,37.731,28.816,38.241z M38.241,28.816c-0.507-0.209-1.095,0.03-1.307,0.541   c-0.211,0.51,0.031,1.096,0.541,1.307l0.924,0.383c0.125,0.052,0.255,0.076,0.383,0.076c0.392,0,0.765-0.232,0.924-0.617   c0.211-0.51-0.031-1.096-0.541-1.307L38.241,28.816z M37.858,19.26c0.128,0,0.258-0.025,0.383-0.077l0.924-0.383   c0.51-0.211,0.752-0.796,0.541-1.307c-0.211-0.511-0.799-0.75-1.307-0.541l-0.924,0.383c-0.51,0.211-0.752,0.796-0.541,1.307   C37.094,19.028,37.467,19.26,37.858,19.26z M29.357,11.065c0.125,0.052,0.255,0.077,0.383,0.077c0.392,0,0.765-0.232,0.924-0.618   l0.383-0.924c0.211-0.51-0.031-1.095-0.541-1.307c-0.507-0.21-1.096,0.03-1.307,0.541l-0.383,0.924   C28.605,10.269,28.848,10.854,29.357,11.065z M31.778,33.192l0.707,0.707l2.121,2.121c0.195,0.195,0.451,0.293,0.707,0.293   s0.512-0.098,0.707-0.293c0.391-0.391,0.391-1.023,0-1.414l-2.121-2.121l-0.707-0.707c-0.391-0.391-1.023-0.391-1.414,0   S31.388,32.802,31.778,33.192z M18.793,27.793c-0.391,0.391-0.391,1.023,0,1.414c0.195,0.195,0.451,0.293,0.707,0.293   s0.512-0.098,0.707-0.293l3.281-3.281C23.653,25.969,23.822,26,24,26c1.105,0,2-0.895,2-2c0-0.738-0.405-1.376-1-1.723V16   c0-0.552-0.448-1-1-1s-1,0.448-1,1v6.277c-0.595,0.346-1,0.984-1,1.723c0,0.178,0.031,0.347,0.074,0.512L18.793,27.793z M24,12   c0.552,0,1-0.448,1-1V8c0-0.552-0.448-1-1-1s-1,0.448-1,1v3C23,11.552,23.448,12,24,12z"/></g></svg>